<svg xmlns="http://www.w3.org/2000/svg" viewBox="0 0 512 512" width="512" height="512">
  <defs>
    <linearGradient id="bg" x1="0" y1="0" x2="1" y2="1">
      <stop offset="0%" stop-color="#0d1117"/>
      <stop offset="100%" stop-color="#161b22"/>
    </linearGradient>
    <linearGradient id="branchA" x1="0" y1="0" x2="1" y2="0">
      <stop offset="0%" stop-color="#f78166"/>
      <stop offset="100%" stop-color="#ec6547"/>
    </linearGradient>
    <linearGradient id="branchB" x1="0" y1="0" x2="1" y2="0">
      <stop offset="0%" stop-color="#a371f7"/>
      <stop offset="100%" stop-color="#8957e5"/>
    </linearGradient>
    <radialGradient id="spot" cx="50%" cy="50%" r="50%">
      <stop offset="0%" stop-color="#39d353" stop-opacity="0.55"/>
      <stop offset="70%" stop-color="#39d353" stop-opacity="0"/>
    </radialGradient>
  </defs>

  <rect width="512" height="512" rx="96" ry="96" fill="url(#bg)"/>

  <!-- terminal window chrome (matches sibling MCPs) -->
  <rect x="56" y="80" width="400" height="320" rx="20" ry="20" fill="#0a0e14" stroke="#30363d" stroke-width="3"/>
  <circle cx="92" cy="116" r="9" fill="#ff5f56"/>
  <circle cx="124" cy="116" r="9" fill="#ffbd2e"/>
  <circle cx="156" cy="116" r="9" fill="#27c93f"/>
  <line x1="56" y1="148" x2="456" y2="148" stroke="#30363d" stroke-width="2"/>

  <!-- git graph: main branch (orange) + feature branch (purple) -->
  <!-- main branch line -->
  <path d="M 110 360 L 110 200" stroke="url(#branchA)" stroke-width="6" fill="none" stroke-linecap="round"/>
  <!-- feature branch curve out and back -->
  <path d="M 110 320 C 110 290, 200 290, 200 260 L 200 220 C 200 200, 130 195, 110 200" stroke="url(#branchB)" stroke-width="6" fill="none" stroke-linecap="round"/>

  <!-- commits on main -->
  <circle cx="110" cy="360" r="14" fill="#0a0e14" stroke="url(#branchA)" stroke-width="6"/>
  <circle cx="110" cy="320" r="14" fill="#0a0e14" stroke="url(#branchA)" stroke-width="6"/>
  <circle cx="110" cy="200" r="14" fill="#0a0e14" stroke="url(#branchA)" stroke-width="6"/>

  <!-- commits on feature -->
  <circle cx="200" cy="260" r="14" fill="#0a0e14" stroke="url(#branchB)" stroke-width="6"/>
  <circle cx="200" cy="220" r="14" fill="#0a0e14" stroke="url(#branchB)" stroke-width="6"/>

  <!-- spotlight + highlighted commit (the one being asked about) -->
  <circle cx="200" cy="260" r="80" fill="url(#spot)"/>
  <circle cx="200" cy="260" r="14" fill="#0a0e14" stroke="#39d353" stroke-width="6"/>

  <!-- annotation: ? over highlighted commit -->
  <text x="200" y="270" font-family="ui-sans-serif, system-ui, -apple-system, sans-serif" font-size="22" font-weight="800" fill="#39d353" text-anchor="middle">?</text>

  <!-- side: blame-style author attributions -->
  <text x="270" y="220" font-family="ui-monospace, 'SF Mono', Menlo, monospace" font-size="22" font-weight="700" fill="#7d8590">@alice</text>
  <text x="270" y="262" font-family="ui-monospace, 'SF Mono', Menlo, monospace" font-size="22" font-weight="700" fill="#e6edf3">@bob</text>
  <text x="270" y="304" font-family="ui-monospace, 'SF Mono', Menlo, monospace" font-size="22" font-weight="700" fill="#7d8590">@carol</text>

  <!-- bars next to authors (line counts) -->
  <rect x="358" y="206" width="70" height="14" rx="3" fill="#30363d"/>
  <rect x="358" y="206" width="42" height="14" rx="3" fill="url(#branchA)"/>

  <rect x="358" y="248" width="70" height="14" rx="3" fill="#30363d"/>
  <rect x="358" y="248" width="62" height="14" rx="3" fill="url(#branchB)"/>

  <rect x="358" y="290" width="70" height="14" rx="3" fill="#30363d"/>
  <rect x="358" y="290" width="22" height="14" rx="3" fill="#39d353"/>

  <!-- wordmark -->
  <text x="256" y="460" font-family="ui-sans-serif, system-ui, -apple-system, sans-serif" font-size="36" font-weight="700" fill="#e6edf3" text-anchor="middle">git-insight-mcp</text>
</svg>
